<svg xmlns="http://www.w3.org/2000/svg" viewBox="0 0 1920 1080" role="img" aria-label="Construction blueprint background 2">
  <defs>
    <linearGradient id="g2" x1="0" y1="0" x2="1" y2="0.9">
      <stop offset="0%" stop-color="#04263b"/>
      <stop offset="50%" stop-color="#055e63"/>
      <stop offset="100%" stop-color="#00753e"/>
    </linearGradient>
  </defs>
  <rect width="1920" height="1080" fill="url(#g2)"/>
  <g fill="none" stroke="#d8f2ff" stroke-opacity="0.24">
    <path d="M80 840 L560 370 L860 620 L1200 320 L1830 760" stroke-width="4"/>
    <path d="M80 900 L560 430 L860 680 L1200 380 L1830 820" stroke-width="2"/>
  </g>
  <g fill="#ffffff" fill-opacity="0.1">
    <rect x="120" y="560" width="200" height="260"/>
    <rect x="360" y="500" width="230" height="320"/>
    <rect x="640" y="430" width="250" height="390"/>
    <rect x="940" y="520" width="180" height="300"/>
    <rect x="1160" y="450" width="290" height="370"/>
  </g>
  <g stroke="#7be6ba" stroke-width="5" opacity="0.5">
    <line x1="210" y1="220" x2="210" y2="500"/>
    <line x1="470" y1="170" x2="470" y2="440"/>
    <line x1="760" y1="140" x2="760" y2="390"/>
    <line x1="1090" y1="210" x2="1090" y2="470"/>
    <line x1="1360" y1="180" x2="1360" y2="430"/>
  </g>
  <rect x="0" y="860" width="1920" height="220" fill="#031825" fill-opacity="0.35"/>
</svg>
